<svg xmlns="http://www.w3.org/2000/svg" aria-hidden="true" style="position:absolute;width:0;height:0;overflow:hidden"><defs><symbol id="icon-arrow" viewBox="0 0 32 32"><path d="M14.667 11.219V24h2.667V11.219l5.724 5.724 1.885-1.885L16 6.115l-8.943 8.943 1.885 1.885 5.724-5.724z"/></symbol><symbol id="icon-check" viewBox="0 0 32 32"><path d="M13.333 20.781 8.942 16.39l-1.885 1.885 6.276 6.276 12.943-12.943-1.885-1.885L13.334 20.78z"/></symbol><symbol id="icon-chevron" viewBox="0 0 32 32"><path d="m8.391 19.057 1.885 1.885L16 15.218l5.724 5.724 1.885-1.885L16 11.448l-7.609 7.609z"/></symbol><symbol id="icon-close" viewBox="0 0 32 32"><path d="m21.589 8.459-5.657 5.656-5.656-5.656-1.885 1.885L14.047 16l-5.656 5.656 1.885 1.885 5.656-5.656 5.657 5.656 1.885-1.885L17.818 16l5.656-5.656-1.885-1.885z"/></symbol><symbol id="icon-location" viewBox="0 0 32 32"><path d="M16 18.667c2.941 0 5.333-2.392 5.333-5.333S18.941 8.001 16 8.001c-2.941 0-5.333 2.392-5.333 5.333s2.392 5.333 5.333 5.333zm0-8c1.471 0 2.667 1.196 2.667 2.667S17.471 16.001 16 16.001c-1.471 0-2.667-1.196-2.667-2.667s1.196-2.667 2.667-2.667z"/><path d="M15.227 29.085a1.332 1.332 0 0 0 1.546 0c.405-.287 9.932-7.165 9.893-15.752 0-5.881-4.785-10.667-10.667-10.667S5.332 7.451 5.332 13.326c-.039 8.593 9.488 15.472 9.893 15.759zM16 5.333c4.412 0 8 3.588 8 8.007.028 5.917-5.851 11.231-8 12.973-2.148-1.744-8.028-7.059-8-12.98 0-4.412 3.588-8 8-8z"/></symbol><symbol id="icon-logo" viewBox="0 0 75 32"><path fill="#fefefd" d="m1.755 16.717-.002.171.002-.168v-.003z" style="fill:var(--color1, #fefefd)"/><path fill="#010101" d="M13.65 8.345c.244-.013.506-.026.727.023a.396.396 0 0 1 .277.182c.046.249.086.495.096.748.02.537.015 1.078.01 1.618-.002.245-.005.489-.005.733v4.649c0 .153.004.41.01.723.019 1.095.05 2.876-.049 3.269-.071.281-.214.411-.458.555-.218.028-.445.033-.67.038-.118.003-.236.005-.351.011-1.086.055-2.232.166-3.229.627a4.165 4.165 0 0 0-.77.447c-.12.091-.255.219-.398.354-.357.338-.77.728-1.159.75-.449.025-.874-.359-1.267-.713a4.302 4.302 0 0 0-.537-.438 6.096 6.096 0 0 0-1.347-.615 9.445 9.445 0 0 0-2.382-.426 5.712 5.712 0 0 0-.372-.006 3.14 3.14 0 0 1-.689-.048c-.192-.043-.316-.14-.46-.268-.105-.251-.138-.56-.151-.83a24.483 24.483 0 0 1-.011-1.46c.003-.216.005-.432.005-.646l.003-4.112-.003-3.111c0-.136-.006-.284-.012-.436-.016-.413-.034-.864.056-1.216.049-.194.162-.279.324-.383 1.784-.116 3.732.255 5.299 1.127.521.29.99.644 1.464 1.002.266-.199.535-.397.809-.585 1.476-1.008 3.233-1.506 5.012-1.551.073-.002.149-.006.228-.01zm-.205 1.397c-.216.002-.445-.012-.659.016-1.464.132-3.342.668-4.337 1.835-.042.05-.083.101-.122.153l-.003 9.156c.163-.118.324-.24.489-.355 1.368-.817 3.079-.958 4.637-1.07 0-3.243.044-6.493-.006-9.736zm-11.667.002a134.787 134.787 0 0 0-.02 4.072c.003.557.006 1.113.006 1.669 0 .408-.005.82-.01 1.232v.003c-.012.912-.023 1.829.023 2.73 1.801.155 3.61.333 5.111 1.434-.009-3.039.008-6.077.051-9.115-1.18-1.245-3.026-1.981-4.728-2.029a7.778 7.778 0 0 0-.432.003z" style="fill:var(--color2, #010101)"/><path fill="#010101" d="M13.65 8.345zm.726.022zm.277.182.214-.039-.008-.043-.024-.037-.182.119zm.096.748zm.01 1.618zm-.006 5.382h-.217.217zm.01.723zm-.049 3.269zm-.458.554.027.215.044-.006.039-.023-.11-.187zm-.67.038zm-.351.011-.011-.217.011.217zm-3.229.627zm-.77.447zm-.397.355zm-1.159.75.012.217-.012-.217zm-1.267-.713zm-.537-.439zm-1.347-.615.068-.206-.067.206zm-2.382-.426-.013.217.013-.217zm-.372-.007zm-.69-.047-.047.212.047-.212zm-.459-.268-.2.084.019.046.037.033.144-.163zm-.151-.83zm-.011-1.46zm.005-.646zm.003-4.112h.217-.217zm-.003-3.111zm-.012-.436zm.056-1.217zm.324-.382-.014-.217-.056.004-.047.03.117.183zm5.299 1.127zM7.6 10.49l-.131.173.13.098.131-.097-.13-.174zm.81-.584zm5.012-1.551zm.023 1.387.217-.003-.003-.216-.216.002.002.217zm-.659.016.02.216.009-.001-.029-.215zm-4.337 1.835-.165-.141-.001.001.166.14zm-.121.153-.174-.13-.044.058v.072h.217zm-.003 9.156h-.217v.427l.345-.251-.128-.176zm.489-.355-.111-.186-.006.004-.006.004.124.178zm4.637-1.07.016.217.202-.014v-.202h-.217zM1.778 9.744l-.007-.217-.205.007-.005.205.217.005zm-.019 4.072zm.005 1.669zm-.01 1.232-.217-.003v.003h.217zm0 .003.217.003v-.003h-.217zm.023 2.731-.217.011.01.189.189.016.019-.216zm5.11 1.434-.128.175.347.255-.001-.43-.217.001zm.051-9.115.217.003.001-.088-.061-.064-.158.149zM2.21 9.741l.006-.217h-.001l-.005.217zm11.44-1.396.012.217c.251-.013.482-.024.668.018l.047-.212.047-.212c-.255-.057-.549-.04-.785-.028l.012.217zm.726.022-.047.212a.286.286 0 0 1 .089.032.168.168 0 0 1 .053.056l.364-.237a.616.616 0 0 0-.411-.275l-.047.212zm.277.182-.214.039c.045.248.084.481.092.717l.434-.016a5.382 5.382 0 0 0-.099-.779l-.214.039zm.096.748-.217.008c.02.531.015 1.067.01 1.608l.434.004a35.38 35.38 0 0 0-.01-1.628l-.217.008zm.01 1.618-.217-.002c-.002.244-.005.49-.005.735h.434c0-.242.003-.486.005-.731l-.217-.002zm-.006.733h-.217v4.649h.434v-4.649h-.217zm0 4.649h-.217c0 .155.004.414.01.726l.434-.008c-.005-.314-.01-.569-.01-.719h-.217zm.01.723-.217.004c.009.548.022 1.265.02 1.893-.001.314-.006.605-.016.84a2.987 2.987 0 0 1-.046.479l.421.106c.031-.123.048-.329.058-.566.011-.244.016-.541.017-.857a93.28 93.28 0 0 0-.02-1.902l-.217.004zm-.049 3.269-.211-.053a.53.53 0 0 1-.117.238.95.95 0 0 1-.241.182l.221.374c.128-.076.249-.158.347-.269a.977.977 0 0 0 .212-.42l-.211-.053zm-.458.554-.027-.215c-.205.026-.42.031-.647.036l.005.217.005.217c.223-.005.462-.01.692-.039l-.027-.215zm-.67.038-.005-.217c-.117.003-.238.005-.357.011l.022.434c.112-.006.226-.008.345-.011l-.005-.217zm-.351.011-.011-.217c-1.087.055-2.271.167-3.309.647l.182.394c.956-.442 2.065-.552 3.149-.607l-.011-.217zm-3.229.627-.091-.197c-.275.127-.558.28-.81.472l.263.346c.217-.165.47-.303.729-.423l-.091-.197zm-.77.447-.132-.173c-.132.1-.275.236-.416.369l.299.315c.146-.138.271-.256.38-.339l-.132-.173zm-.397.355-.149-.158c-.181.171-.363.343-.546.476-.186.135-.345.208-.476.215l.024.434c.258-.014.5-.147.707-.297.21-.152.413-.345.589-.512l-.149-.158zm-1.159.75-.012-.217c-.158.009-.33-.054-.524-.18s-.386-.298-.585-.477l-.291.323c.193.175.411.371.64.52s.494.265.785.249l-.012-.217zm-1.267-.713.146-.161c-.183-.165-.377-.341-.567-.461l-.232.367c.152.096.317.243.508.416l.146-.161zm-.537-.439.116-.184a6.334 6.334 0 0 0-1.395-.638l-.135.413c.452.148.903.343 1.299.592l.116-.184zm-1.347-.615.067-.206c-.788-.258-1.619-.388-2.437-.437l-.013.217-.013.217c.79.047 1.583.173 2.328.416l.068-.206zm-2.382-.426.013-.217c-.129-.008-.261-.007-.385-.007l.001.434c.127 0 .245-.001.358.006l.013-.217zm-.372-.007-.001-.217a3.01 3.01 0 0 1-.642-.042l-.094.424c.248.055.508.053.737.053l-.001-.217zm-.69-.047.047-.212c-.135-.03-.223-.095-.363-.218l-.288.325c.149.132.308.262.557.317l.047-.212zm-.459-.268.2-.084c-.09-.213-.122-.49-.134-.756l-.434.021c.013.274.047.616.168.904l.2-.084zm-.151-.83.217-.01c-.023-.476-.017-.958-.011-1.446l-.434-.005c-.006.486-.012.982.011 1.473l.217-.01zm-.011-1.46.217.003c.003-.216.005-.433.005-.649H.252c0 .213-.002.428-.005.644l.217.003zm.005-.646h.217l.003-4.112H.255L.252 17.62h.217zm.003-4.112h.217l-.003-3.111H.252l.003 3.111h.217zm-.003-3.111h.217c0-.141-.006-.293-.012-.445l-.434.017c.006.153.011.297.012.428h.217zm-.012-.436.217-.008C.658 9.53.643 9.114.723 8.799l-.421-.107c-.099.389-.078.875-.063 1.278l.217-.008zm.056-1.217.21.054c.028-.109.077-.156.23-.253l-.234-.366c-.171.109-.346.234-.417.512l.21.054zm.324-.382.014.217c1.748-.113 3.654.251 5.18 1.1l.211-.38C4.634 8.404 2.643 8.027.823 8.145l.014.217zm5.299 1.127-.106.19c.505.281.963.626 1.439.985l.262-.347c-.472-.357-.954-.72-1.49-1.019l-.106.19zM7.6 10.49l.13.174c.266-.199.532-.395.802-.579l-.245-.359c-.278.19-.55.391-.817.59l.13.174zm.81-.584.123.179c1.436-.982 3.152-1.47 4.895-1.513l-.011-.434c-1.816.045-3.615.554-5.13 1.589l.123.179zm5.012-1.551.005.217c.076-.002.157-.007.234-.011l-.012-.217-.012-.217c-.08.004-.153.008-.222.01l.005.217zm.023 1.387-.002-.217c-.195.002-.454-.013-.686.018l.029.215.029.215c.196-.026.395-.012.632-.014l-.002-.217zm-.659.016-.02-.216a9.215 9.215 0 0 0-2.402.543c-.797.304-1.551.747-2.08 1.367l.331.282c.465-.546 1.147-.954 1.904-1.243a8.76 8.76 0 0 1 2.287-.516l-.02-.216zm-4.337 1.835-.166-.14a3.29 3.29 0 0 0-.129.163l.347.261c.037-.049.075-.097.114-.143l-.166-.14zm-.121.153h-.217l-.003 9.156h.434l.003-9.156h-.217zm-.003 9.156.128.176c.167-.122.322-.239.485-.352l-.248-.357c-.167.116-.335.243-.493.358l.128.176zm.489-.355.111.187c1.316-.786 2.973-.927 4.542-1.04l-.016-.217-.016-.217c-1.55.111-3.314.252-4.733 1.1l.111.186zm4.637-1.07h.217c0-3.239.044-6.494-.007-9.739l-.434.007c.05 3.241.007 6.485.006 9.732h.217zM1.778 9.744l-.217-.005a135.315 135.315 0 0 0-.02 4.079l.434-.002c-.007-1.358-.014-2.715.019-4.066l-.217-.005zm-.019 4.072-.217.001c.003.557.006 1.113.006 1.668h.434c0-.556-.003-1.114-.006-1.67l-.217.001zm.005 1.669h-.217c0 .407-.005.817-.01 1.229l.434.006c.005-.412.01-.825.01-1.235h-.217zm-.01 1.232h-.217v.003h.434v-.003h-.217zm0 .003-.217-.003c-.011.911-.023 1.835.023 2.744l.434-.022c-.045-.894-.034-1.804-.023-2.717l-.217-.003zm.023 2.731-.019.216c1.81.156 3.557.333 5.001 1.393l.257-.35c-1.557-1.143-3.428-1.321-5.221-1.476l-.019.216zm5.11 1.434.217-.001c-.009-3.037.008-6.075.051-9.112l-.434-.006a533.03 533.03 0 0 0-.051 9.119l.217-.001zm.051-9.115.158-.149c-1.224-1.292-3.127-2.047-4.88-2.096l-.006.217-.006.217c1.652.046 3.441.762 4.576 1.961l.158-.149zM2.21 9.741l.005-.217a8.216 8.216 0 0 0-.444.003l.007.217.007.217c.14-.005.281-.006.421-.003l.005-.217zM20.32 9.345c1.74-.03 4.671-.081 5.636.288.737.282 1.364.838 1.685 1.564.316.716.339 1.663.052 2.392-.306.778-.869 1.108-1.596 1.421l.17.059c.156.054.312.109.459.181a2.878 2.878 0 0 1 1.429 1.633c.295.871.182 1.846-.217 2.662a3.214 3.214 0 0 1-1.234 1.201c-.455.255-.905.357-1.419.425-.782.104-5.312.172-5.881-.022-.077-.026-.153-.055-.188-.131-.084-.182-.095-.46-.104-.674l-.003-.059c-.055-1.218-.037-2.452-.02-3.682.008-.547.016-1.093.018-1.635.001-.523-.006-1.049-.012-1.577-.013-1.028-.027-2.061.02-3.078.01-.22.029-.467.108-.674.061-.158.139-.213.288-.283.218-.002.495-.006.81-.012zm4.35 6.611c-.634-.151-2.637-.047-3.399-.046l.001 3.475c.894.002 2.843.115 3.609-.081.283-.073.508-.186.723-.383.345-.407.524-.817.472-1.362a1.726 1.726 0 0 0-.631-1.208 1.94 1.94 0 0 0-.775-.394zm.536-4.461c-.611-.474-2.213-.423-3.303-.387-.241.008-.458.015-.632.015l.001 3.094c.203.001.451.007.721.014.892.023 2.031.052 2.625-.1a1.82 1.82 0 0 0 .727-.363c.29-.352.449-.753.411-1.215a1.495 1.495 0 0 0-.551-1.057zM38.271 16.265a4.586 4.586 0 0 0-9.09 1.209 4.586 4.586 0 0 0 9.09-1.209zm-4.859-1.998c.51-.025.959-.017 1.411.259.507.309.823.837.96 1.405.195.804.149 1.912-.303 2.628-.324.513-.776.739-1.348.865-.549.055-1.093.003-1.564-.312-.496-.333-.785-.876-.897-1.451-.159-.817-.109-1.878.384-2.577.339-.48.79-.716 1.356-.817zM48.111 16.237a4.579 4.579 0 1 0-9.073 1.253 4.579 4.579 0 1 0 9.073-1.254zm-4.895-1.969c.496-.041.975-.025 1.421.224.529.296.852.817 1.003 1.391.216.826.174 1.89-.278 2.634-.32.527-.777.773-1.361.904-.547.071-1.085.01-1.555-.299-.502-.33-.793-.867-.915-1.443-.172-.815-.116-1.864.359-2.572.322-.481.771-.726 1.326-.84zM49.939 8.974a1.78 1.78 0 0 1 .103-.007c.341-.012 1.099-.078 1.33.234.099.133.113.41.125.574.052.692.01 1.415.01 2.11l.001 4.091c.484-.575 1.041-1.102 1.551-1.655.504-.547.988-1.175 1.547-1.662a.92.92 0 0 1 .406-.224c.357-.097 1.649-.169 1.921.025.07.049.129.145.123.233-.024.389-2.597 2.926-3.045 3.37a369.323 369.323 0 0 0 2.496 3.582c.209.303.803.954.726 1.33a.302.302 0 0 1-.153.193c-.386.212-1.868.073-2.33-.078-.331-.332-.6-.813-.866-1.199l-1.61-2.347-.769.669c-.003.616.181 2.427-.215 2.839-.177.185-.409.199-.65.202-.368.004-1.081.065-1.35-.198-.069-.709-.046-1.427-.046-2.138l-.001-3.039v-4.164c0-.74-.027-1.491.008-2.23.005-.099.007-.185.066-.27.142-.205.398-.208.623-.239zM65.59 12.355c.486-.011 1.452-.118 1.89.063.164.068.238.235.311.388.311.648.515 1.396.765 2.073.435 1.178.905 2.344 1.347 3.519.257-.663 2.03-5.606 2.321-5.853.142-.121.413-.147.59-.152.374-.011 1.073-.094 1.356.168.071.168.062.261.021.441-.145.63-.454 1.286-.68 1.893l-1.455 3.91-.983 2.666c-.197.538-.372 1.113-.628 1.625a3.313 3.313 0 0 1-.535.785c-.523.56-1.207.801-1.959.827-.323.011-.876.071-1.125-.159-.159-.321-.172-1.071-.07-1.418.1-.338.839-.273 1.137-.441.479-.27.61-.801.734-1.295-.385-1.165-3.286-8.287-3.257-8.689.012-.175.095-.25.222-.351zM60.825 12.321c.243-.037.51-.027.758-.024.983.01 2.083.217 2.791.957.325.34.563.854.527 1.333-.006.082-.029.199-.098.248-.353.25-1.317.201-1.737.144-.372-.05-.344-.299-.573-.572-.253-.3-.623-.447-1.007-.475-.428-.031-.97.108-1.289.409-.141.133-.289.475-.266.666.099.835 2.452.942 3.129 1.113.574.145 1.166.36 1.624.746.435.367.632.866.676 1.425a2.49 2.49 0 0 1-.603 1.869c-.794.906-1.951 1.172-3.102 1.256-.885.03-1.837-.091-2.633-.5-.577-.297-1.099-.76-1.291-1.4-.079-.261-.132-.567.007-.814.402-.315 1.501-.192 1.99-.174.165.251.265.545.49.752.379.35.939.455 1.44.43.41-.02.846-.137 1.12-.462a.88.88 0 0 0 .217-.646c-.091-.947-2.424-.944-3.146-1.11-.521-.12-1.053-.331-1.475-.666-.445-.353-.729-.828-.783-1.397a2.667 2.667 0 0 1 .597-1.924c.669-.81 1.63-1.085 2.637-1.184z" style="fill:var(--color2, #010101)"/></symbol><symbol id="icon-mail" viewBox="0 0 32 32"><path d="M26.667 5.333H5.334A2.67 2.67 0 0 0 2.667 8v16a2.67 2.67 0 0 0 2.667 2.667h21.333A2.67 2.67 0 0 0 29.334 24V8a2.67 2.67 0 0 0-2.667-2.667zm0 2.667v.681L16 16.978 5.333 8.682v-.683h21.333zM5.333 24V12.059l9.848 7.66a1.327 1.327 0 0 0 1.638 0l9.848-7.66L26.67 24H5.334z"/></symbol><symbol id="icon-menu" viewBox="0 0 32 32"><path d="M5.333 8h21.333v2.667H5.333V8zm5.334 6.667h16v2.667h-16v-2.667zm6.666 6.666h9.333V24h-9.333v-2.667z"/></symbol><symbol id="icon-minus" viewBox="0 0 32 32"><path d="M6.667 14.667h18.667v2.667H6.667v-2.667z"/></symbol><symbol id="icon-phone" viewBox="0 0 32 32"><path d="M23.61 16.391a1.338 1.338 0 0 0-.942-.391 1.334 1.334 0 0 0-.942.391l-2.125 2.125c-.985-.293-2.824-.96-3.989-2.125s-1.832-3.004-2.125-3.989l2.125-2.125a1.338 1.338 0 0 0 .391-.942 1.334 1.334 0 0 0-.391-.942L10.279 3.06a1.338 1.338 0 0 0-.942-.391 1.334 1.334 0 0 0-.942.391L4.779 6.676a2.663 2.663 0 0 0-.781 1.913c.031 1.899.533 8.493 5.731 13.691s11.792 5.699 13.692 5.731h.037c.704 0 1.369-.277 1.873-.781l3.616-3.616a1.338 1.338 0 0 0 .391-.942 1.33 1.33 0 0 0-.391-.942l-5.333-5.335zm-.17 8.949c-1.664-.028-7.357-.475-11.831-4.949C7.121 15.903 6.686 10.19 6.66 8.559l2.673-2.673 3.448 3.448-1.724 1.724a1.33 1.33 0 0 0-.362 1.216c.032.153.815 3.789 3.028 6.003s5.849 2.996 6.003 3.028a1.317 1.317 0 0 0 1.216-.361l1.725-1.724 3.448 3.448-2.675 2.673z"/></symbol><symbol id="icon-plus" viewBox="0 0 32 32"><path d="M25.333 14.667h-8v-8h-2.667v8h-8v2.667h8v8h2.667v-8h8v-2.667z"/></symbol><symbol id="icon-star" viewBox="0 0 32 32"><path d="M8.688 19.097 6.701 27.7a1.326 1.326 0 0 0 .538 1.4 1.327 1.327 0 0 0 1.501.009l7.26-4.84 7.26 4.84a1.333 1.333 0 0 0 1.525-.034 1.34 1.34 0 0 0 .498-1.441l-2.439-8.533 6.048-5.443a1.332 1.332 0 0 0-.073-2.043 1.339 1.339 0 0 0-.714-.277l-7.601-.605-3.289-7.281A1.327 1.327 0 0 0 16 2.665a1.33 1.33 0 0 0-1.215.787l-3.289 7.281-7.601.604a1.333 1.333 0 0 0-.825 2.284l5.619 5.476zm3.804-5.768a1.329 1.329 0 0 0 1.11-.782l2.399-5.308 2.399 5.308a1.33 1.33 0 0 0 1.11.782l5.296.42-4.361 3.925a1.336 1.336 0 0 0-.391 1.357l1.671 5.847-4.981-3.321a1.325 1.325 0 0 0-1.478 0l-5.205 3.471 1.4-6.061a1.343 1.343 0 0 0-.368-1.254l-4.051-3.949 5.453-.435z"/></symbol></defs></svg>